<?xml version="1.0"?>
<svg xmlns:rdf="http://www.w3.org/1999/02/22-rdf-syntax-ns#" xmlns="http://www.w3.org/2000/svg" xmlns:cc="http://creativecommons.org/ns#" xmlns:dc="http://purl.org/dc/elements/1.1/" xmlns:svg="http://www.w3.org/2000/svg" id="svg2" viewBox="0 0 155.33 684.48" version="1.1">
  <g id="layer1" transform="translate(-279 -196.09)">
    <path id="path2904" d="m335.38 879.9c-25.37-2.6228-44.679-9.7583-51.85-19.161-7.0787-9.2807-5.5572-31.003 4.364-62.305 5.319-16.782 6.3942-25.468 5.6858-45.933-0.50631-14.625-1.5294-22.659-7.2017-56.547-5.4977-32.845-6.5114-40.679-6.0169-46.5 0.32707-3.85 0.66234-8.125 0.74505-9.5 0.0827-1.375-0.44875-7.9-1.181-14.5-2.2817-20.565-0.23234-49.563 5.1591-73 1.1583-5.0351 2.1573-13.185 2.2678-18.5 0.17119-8.2356 0.66751-10.698 3.7289-18.5 22.266-56.744 24.137-62.161 27.812-80.5 3.1217-15.576 5.5745-38.993 4.6688-44.574-0.30571-1.8838-1.9958-6.3502-3.7558-9.9252-2.9932-6.0802-3.1528-6.936-2.471-13.251 0.78986-7.3151 0.78828-8.0559-0.041-19.275-0.49165-6.6514-0.30946-7.8384 1.5699-10.228 2.8775-3.6581 9.5355-5.4713 24.865-6.7712 19.268-1.634 42.514 0.59395 48.736 4.671 4.312 2.8253 5.7589 12.201 2.9285 18.975-1.1746 2.8113-1.2398 4.0117-0.31026 5.7179 0.64708 1.1878 1.1838 5.1514 1.1926 8.8082 0.0135 5.5625-0.5076 7.6479-3.1897 12.765-2.871 5.4771-3.2059 6.9969-3.2059 14.55 0 10.337 2.2354 27.884 5.5559 43.61 2.477 11.732 11.655 37.917 22.967 65.526 6.7084 16.373 8.9284 25.107 7.6024 29.91-0.70663 2.5592-0.46444 5.2724 0.97066 10.874 5.9196 23.108 8.6819 53.653 6.7506 74.65-0.68127 7.4067-1.1567 15.717-1.0566 18.467 0.65387 17.954 0.25994 21.924-5.6057 56.5-10.122 59.664-10.288 75.971-1.066 104.36 7.1943 22.148 10.13 47.321 6.5248 55.949-4.2125 10.082-19.14 17.905-41.567 21.783-13.488 2.3327-41.795 3.2752-55.576 1.8506zm-2.5-15.946c1.1-1.1 2-2.3879 2-2.862 0-0.78569-9.4953-3.138-12.667-3.138-1.8026 0-1.6844 3.0536 0.22348 5.7775 2.0351 2.9054 7.6409 3.0249 10.443 0.22251zm0.61047-34.765c2.8464-1.8832 6.1442-11.738 8.9468-26.735 2.8564-15.285 2.2593-32.572-3.9838-115.35-1.3419-17.792-2.5824-32.486-2.7566-32.651-0.17426-0.16585-3.3536-0.62327-7.0651-1.0165l-6.7483-0.71494 0.50568 2.8663c0.6808 3.8588 6.0472 62.083 7.9603 86.366 0.84491 10.725 1.593 25.125 1.6625 32 0.13181 13.047-0.52181 16.704-6.5995 36.926-2.9438 9.7949-3.1927 14.687-0.87744 17.245 1.6635 1.8381 6.8531 2.4544 8.9555 1.0634zm5.7599-275.53c0.47871-3.188 0.61809-6.0486 0.30973-6.3569-0.30836-0.30835-4.3441-0.79669-8.9682-1.0852l-8.4076-0.52453-0.64117 3.8815c-1.3142 7.9559-0.9781 9.2136 2.5868 9.6793 1.7875 0.23349 5.725 0.3745 8.75 0.31336l5.5-0.11116 0.87039-5.7963zm1.5571-19.013c1.4053-3.6961 5.0484-49.919 8.5668-108.69 0.83959-14.025 1.7624-27.638 2.0506-30.25l0.52404-4.75h-7.8122l-0.69236 13.25c-0.91563 17.523-3.156 39.333-5.6238 54.75-4.0719 25.438-6.9906 41.942-10.41 58.864-1.9296 9.55-3.2618 17.763-2.9606 18.25 0.30128 0.48748 3.9074 0.88633 8.0135 0.88633 6.879 0 7.5347-0.18151 8.3437-2.3094zm12.547-163.64c0.83912-1.6227 1.5257-4.4914 1.5257-6.375 0-3.0356-0.355-3.4957-3.125-4.0497-4.6822-0.93644-8.6765-0.75514-9.4071 0.42698-1.1631 1.8819-0.81718 9.8222 0.49682 11.405 0.74818 0.9015 2.8809 1.5425 5.1321 1.5425 3.254 0 4.0887-0.45791 5.3776-2.9503zm1.7954-59.532c-3.62-1.57-7.27-6.78-7.28-10.37-0.006-3.7716 3.0351-9.1199 6.0814-10.695 1.5485-0.80077 4.5377-1.456 6.6426-1.456 12.356 0 15.495 16.697 4.2335 22.52-3.5079 1.814-5.5143 1.8135-9.6917-0.003v0.00043zm-17.712-32.715c-2.4129-0.66849-5.7214-2.879-8.5277-5.6974-8.9846-9.0237-9.3097-20.507-0.8408-29.694 13.362-14.496 37.119-5.1618 37.131 14.589 0.008 14.443-13.684 24.703-27.762 20.803zm3.6137-24.458c5.264-4.7638-1.7879-13.401-7.4254-9.095-2.7995 2.1384-3.1991 6.2968-0.83252 8.6633 2.5115 2.5115 5.7714 2.6819 8.2579 0.43167zm20.144-24.352c-7.5228-3.031-4.5365-15.993 3.6846-15.993 8.2075 0 11.187 11.783 3.9285 15.537-3.1816 1.6453-4.4699 1.7224-7.6131 0.45604zm-8.376-24.054c-2.7822-2.7822-2.2205-6.94 1.1954-8.8484 2.3598-1.3184 2.9076-1.2932 5.25 0.24151 3.3788 2.2139 3.5798 6.8784 0.39272 9.1108-2.9526 2.0681-4.3706 1.9636-6.8381-0.50388z" fill="#e0a1a1"/>
    <path id="path2902" d="m340.62 879.53c-18.864-1.4269-35.018-5.0725-45.042-10.165-5.3157-2.7006-12.672-9.6627-14.298-13.531-1.817-4.3234-1.7462-20.762 0.13582-31.554 0.81851-4.6937 3.1226-13.865 5.1202-20.381 5.6238-18.344 6.2423-21.094 7.3235-32.559 1.5126-16.04-0.20456-34.222-7.1102-75.288-5.8665-34.887-6.3738-40.011-5.5933-56.5 0.11715-2.475-0.37312-10.35-1.0895-17.5-2.0539-20.5 0.43616-49.928 6.2527-73.897 1.8242-7.517 2.1667-10.572 1.4242-12.702-1.5649-4.489 0.63115-12.54 9.6559-35.401 17.901-45.347 22.684-61.809 25.48-87.711 1.8892-17.5 1.4728-23.95-1.971-30.525-3.699-7.0622-4.631-14.12-2.6906-20.375 1.1955-3.854 1.2128-5.0021 0.10547-7-1.743-3.1447-1.7488-11.108-0.0112-15.267 2.7652-6.6179 16.473-9.1776 44.616-8.3314 19 0.57129 26.542 1.9907 30.541 5.7471 2.1952 2.0622 2.4591 3.1286 2.4591 9.9359 0 4.3123-0.48849 8.1142-1.1242 8.7499-0.83231 0.83231-0.83231 1.9616 0 4.3492 0.61833 1.7737 1.1242 6.0371 1.1242 9.4742 0 5.0718-0.586 7.3518-3.1101 12.101l-3.1101 5.8516 0.53689 15c1.0827 30.25 5.6699 47.457 26.525 99.5 8.469 21.134 8.618 21.653 8.7488 30.5 0.0813 5.5001 1.1687 13.816 2.7961 21.384 5.4134 25.174 7.2063 58.491 4.2036 78.116-0.78424 5.1255-0.9611 9.4191-0.44549 10.815 1.8448 4.9948 0.64385 17.525-4.6946 48.983-10.408 61.329-10.885 81.46-2.5141 105.99 8.4126 24.648 11.444 49.379 7.1988 58.725-4.8171 10.604-21.037 18.4-45.561 21.899-13.434 1.917-32.622 2.5741-45.881 1.5712h-0.00001zm-7.1501-16.026c2.5998-2.8727 1.2905-4.3041-5.1095-5.5861-6.7043-1.343-7.4332-1.1468-7.4332 2.0013 0 5.9881 8.2372 8.3424 12.543 3.5848zm1.3936-34.889c2.3763-2.3763 6.5321-15.249 8.6818-26.893 2.766-14.981 1.975-40.522-3.6906-119.17-1.3092-18.174-2.4832-28.912-3.2404-29.636-0.65303-0.62468-4.4498-1.4394-8.4373-1.8106l-7.25-0.67476v3.7135c0 2.0424 1.5631 19.282 3.4735 38.311 7.5314 75.014 8.0483 88.305 4.0418 103.92-1.3665 5.3247-3.3881 12.606-4.4924 16.181-1.1042 3.575-2.0112 7.983-2.0154 9.7954-0.0156 6.725 8.3945 10.802 12.929 6.2682zm4.3414-268.48c1.5631-1.5631 3.1834-13.565 1.9772-14.646-0.41527-0.37227-4.8694-0.95121-9.898-1.2865-6.6678-0.44464-9.4074-0.2763-10.12 0.62181-1.3008 1.64-2.4385 12.911-1.4566 14.431 0.43882 0.67943 3.7967 1.3531 7.7469 1.5541 3.8348 0.1952 7.7277 0.44304 8.6509 0.55076 0.92322 0.10772 2.3179-0.44345 3.0992-1.2248zm1.9642-22.829c1.9454-1.4971 2.8756-9.0186 5.8438-47.25 1.1529-14.85 1.8576-29.7 1.5658-33-0.29173-3.3 0.35626-19.252 1.44-35.448s1.7456-30.034 1.4708-30.75c-0.63754-1.6614-6.0022-1.6996-7.3091-0.0521-0.54537 0.6875-1.2414 8.45-1.5467 17.25-0.67134 19.349-3.2644 42.892-5.1767 47-0.76813 1.65-2.3636 9.3-3.5455 17-1.8203 11.859-9.9167 55.109-11.652 62.243-0.41401 1.7021 0.0226 2.4703 1.8111 3.1866 3.5028 1.4029 15.202 1.2801 17.099-0.1794zm10.778-164.56c2.1522-1.7428 4.1451-9.1909 3.2099-11.997-0.25013-0.75037-2.7188-1.1886-6.6962-1.1886-5.688 0-6.3586 0.21857-6.903 2.25-1.6741 6.2469-0.10987 11.118 3.8697 12.05 3.5821 0.83885 4.248 0.72503 6.5196-1.1145zm2.2217-62.51c-6.853-3.8059-7.5991-13.54-1.457-19.01 3.1002-2.7606 9.3724-3.2765 13.096-1.077 3.261 1.9263 6.1198 6.7671 6.1198 10.362 0 2.9793-2.553 7.6227-5.2168 9.4885-2.6582 1.8619-9.3859 1.9882-12.542 0.23547zm-18.096-32.692c-12.079-5.1062-17.128-19.511-10.69-30.496 1.4604-2.492 4.51-5.7583 6.777-7.2585 3.5964-2.38 5.1078-2.7276 11.859-2.7276 6.9834 0 8.1517 0.29219 11.996 3 6.3881 4.4993 9.1516 10.405 8.7143 18.622-0.62843 11.811-7.9794 19.125-19.692 19.592-3.6352 0.14503-7.6691-0.18429-8.9642-0.73182zm5.6548-23.182c1.7116-1.7116 1.4838-7.3734-0.37143-9.2286-5.3385-5.3385-13.843 2.9979-8.7736 8.5998 1.8787 2.0759 7.3235 2.4503 9.145 0.62874zm21.2-24.516c-7.2765-2.6114-8.0528-11.532-1.3157-15.12 3.2319-1.7213 4.8272-1.4453 8.239 1.4256 2.1128 1.7778 3.0767 3.4834 3.0767 5.4442 0 4.8456-5.9072 9.7195-10 8.2506zm-10.464-25.243c-2.2247-2.4582-1.3745-6.6396 1.538-7.5639 5.692-1.8066 10.122 3.4386 6.389 7.5639-2.2669 2.5049-5.6601 2.5049-7.9271 0z" fill="#a1a0a3"/>
    <path id="path2900" d="m338.27 878.47c-22.954-2.0368-41.116-7.5627-49.706-15.124-6.9638-6.1298-7.8792-8.5709-7.8069-20.82 0.0727-12.324 2.5744-25.536 8.1956-43.281 5.6269-17.764 6.4643-24.545 5.8052-47.016-0.51468-17.547-1.0964-22.308-6.7449-55.203-6.0236-35.08-6.6583-41.368-5.803-57.5 0.13122-2.475-0.36362-10.125-1.0996-17-2.1389-19.979-0.0579-46.858 5.5355-71.5 1.7497-7.7082 2.3228-12.496 1.9154-16-0.7706-6.6263 0.99031-12.985 9.3887-33.905 17.454-43.477 23.131-63.064 26.029-89.805 1.8802-17.35 1.4878-22.929-2.0931-29.761-3.7089-7.0756-4.5522-13.706-2.5613-20.139 1.1925-3.8531 1.2093-5.0026 0.10221-7-0.72853-1.3144-1.3406-4.9167-1.36-8.005-0.0463-7.3301 2.2221-10.322 9.4089-12.412 10.879-3.1626 45.23-3.43 57.656-0.44897 2.6818 0.64336 6.0062 2.0588 7.3876 3.1454 2.295 1.8052 2.5116 2.642 2.5116 9.703 0 4.3202-0.48852 8.2159-1.1079 8.8354-0.81058 0.81058-0.79141 2.067 0.0714 4.6814 2.2255 6.7433 1.5024 14.282-2.0391 21.26l-3.2185 6.3409 0.57553 14.255c0.71133 17.618 4.52 39.114 9.7016 54.755 3.3564 10.131 9.935 27.441 21.854 57.5 3.1227 7.8756 3.59 10.187 3.7404 18.5 0.0945 5.225 0.88692 12.201 1.7609 15.503 4.4445 16.791 6.0081 31.318 5.9733 55.497-0.0802 55.773 0.17156 52.139-6.3052 91-7.2042 43.226-8.8796 61.161-7.2085 77.171 1.253 12.004 1.8492 14.632 7.4499 32.829 8.2644 26.853 9.0155 48.399 1.9646 56.36-6.0191 6.796-22.905 13.527-40.212 16.03-13.679 1.9782-36.833 2.7012-49.762 1.5539h0.00003zm-4.2381-13.944c2.923-2.923 2.5886-5.8384-0.75-6.5387-1.5125-0.31723-4.6856-1.0131-7.0513-1.5464-2.3657-0.53328-4.7282-0.70575-5.25-0.38327-1.4761 0.91231-1.117 5.783 0.608 8.2458 2.1087 3.0107 9.5226 3.1432 12.443 0.22251zm-0.59524-34.139c2.6505-1.2077 4.3594-4.2452 6.9541-12.361 5.1556-16.126 6.5186-34.025 4.7594-62.5-3.0984-50.154-7.3237-101.57-8.4344-102.64-0.65115-0.62468-4.4464-1.4394-8.4339-1.8106l-7.25-0.67476v3.6253c0 1.9939 1.1172 14.959 2.4826 28.811 4.7967 48.661 6.7429 74.335 6.8365 90.185l0.0944 16-4.7482 16c-4.9563 16.701-5.2824 20.783-1.8957 23.732 3.2628 2.8412 5.9704 3.299 9.6352 1.6292h0.00003zm5.8731-270.28c1.5631-1.5631 3.1834-13.565 1.9772-14.646-0.41527-0.37227-4.8694-0.95121-9.898-1.2865-6.6678-0.44464-9.4073-0.2763-10.12 0.62181-1.3008 1.64-2.4385 12.911-1.4566 14.431 0.43882 0.67943 3.7967 1.3531 7.7469 1.5541 3.8348 0.1952 7.7277 0.44304 8.6509 0.55076 0.92322 0.10772 2.3179-0.44345 3.0992-1.2248zm1.9571-22.829c1.0903-0.84275 1.9412-4.0193 2.6118-9.75 2.1956-18.765 9.4898-135.65 8.5592-137.15-0.28815-0.46624-2.5138-0.8477-4.9458-0.8477-5.4156 0-5.1334-1.0206-5.9457 21.5-0.83727 23.214-6.2603 59.69-15.971 107.42-1.9491 9.5806-3.5438 17.583-3.5438 17.782 0 2.2031 16.572 3.1065 19.235 1.0485zm12.24-164.86c1.5097-1.451 1.9808-3.2521 2-7.6455l0.0251-5.7473-6.7573-0.29586c-6.4819-0.28379-6.7978-0.18942-7.75 2.3151-3.9467 10.381 5.0173 18.548 12.482 11.374h-0.00005zm4.025-61.606c-2.8607-0.68834-7.2304-5.0765-7.9634-7.997-0.8726-3.4767 1.1259-8.8791 4.1707-11.274 4.1695-3.2797 9.7886-2.7198 13.893 1.3844 2.4274 2.4274 3.4 4.301 3.4 6.5497 0 4.664-2.676 9.017-6.5343 10.629-3.5401 1.4792-3.6952 1.4949-6.9657 0.70798zm-23.593-35.614c-2.8514-1.5059-5.4343-3.9858-7.3164-7.0246-9.8098-15.839 5.1386-35.481 22.972-30.185 5.4265 1.6115 11.573 7.057 13.378 11.852 1.3624 3.6199 1.3615 11.754-0.002 15.37-1.4395 3.8181-6.735 9.2516-10.657 10.934-5.0698 2.1754-13.262 1.7532-18.375-0.94688h0.00021zm7.8702-20.229c4.7646-3.3373 1.6011-12.443-4.3229-12.443-2.9918 0-7.4546 4.0827-7.4546 6.8197 0 1.0508 0.93266 3.0963 2.0726 4.5454 2.385 3.032 6.2952 3.4664 9.7049 1.0782zm21.223-26.163c-5.5438-2.0014-6.8393-8.6886-2.3651-12.208 1.4492-1.1399 3.4135-2.0726 4.3651-2.0726 3.0669 0 7 3.9116 7 6.9618 0 4.7341-4.9683 8.7743-9 7.3188zm-9.757-24.438c-2.8638-2.8638-0.31073-7.2869 3.8498-6.6697 3.0362 0.45036 4.7249 3.303 3.3012 5.5768-1.3453 2.1485-5.4657 2.7783-7.151 1.093z" fill="#d72a2a"/>
    <path id="path2898" d="m338.25 878.46c-22.954-2.0368-41.116-7.5627-49.706-15.124-6.9638-6.1298-7.8792-8.5709-7.8069-20.82 0.0727-12.324 2.5744-25.536 8.1956-43.281 5.6269-17.764 6.4643-24.545 5.8052-47.016-0.51468-17.547-1.0964-22.308-6.7449-55.203-6.0236-35.08-6.6583-41.368-5.803-57.5 0.13122-2.475-0.36362-10.125-1.0996-17-2.1389-19.979-0.0579-46.858 5.5355-71.5 1.7497-7.7082 2.3228-12.496 1.9154-16-0.7706-6.6263 0.99031-12.985 9.3887-33.905 17.454-43.477 23.131-63.064 26.029-89.805 1.8802-17.35 1.4878-22.929-2.0931-29.761-3.7089-7.0756-4.5522-13.706-2.5613-20.139 1.1925-3.8531 1.2093-5.0026 0.10221-7-0.72853-1.3144-1.3406-4.9167-1.36-8.005-0.0463-7.3301 2.2221-10.322 9.4089-12.412 10.879-3.1626 45.23-3.43 57.656-0.44897 2.6818 0.64336 6.0062 2.0588 7.3876 3.1454 2.295 1.8052 2.5116 2.642 2.5116 9.703 0 4.3202-0.48852 8.2159-1.1079 8.8354-0.81058 0.81058-0.79141 2.067 0.0714 4.6814 2.2255 6.7433 1.5024 14.282-2.0391 21.26l-3.2185 6.3409 0.57553 14.255c0.71133 17.618 4.52 39.114 9.7016 54.755 3.3564 10.131 9.935 27.441 21.854 57.5 3.1227 7.8756 3.59 10.187 3.7404 18.5 0.0945 5.225 0.88692 12.201 1.7609 15.503 4.4445 16.791 6.0081 31.318 5.9733 55.497-0.0802 55.773 0.17156 52.139-6.3052 91-7.2042 43.226-8.8796 61.161-7.2085 77.171 1.253 12.004 1.8492 14.632 7.4499 32.829 8.2644 26.853 9.0155 48.399 1.9646 56.36-6.0191 6.796-22.905 13.527-40.212 16.03-13.679 1.9782-36.833 2.7012-49.762 1.5539h0.00003zm-4.2381-13.944c2.923-2.923 2.5886-5.8384-0.75-6.5387-1.5125-0.31723-4.6856-1.0131-7.0513-1.5464-2.3657-0.53328-4.7282-0.70575-5.25-0.38327-1.4761 0.91231-1.117 5.783 0.608 8.2458 2.1088 3.0107 9.5226 3.1432 12.443 0.22251zm-0.59524-34.139c2.6505-1.2077 4.3594-4.2452 6.9541-12.361 5.1762-16.191 6.5126-33.956 4.7391-63-0.63809-10.45-1.386-23.05-1.662-28-0.27598-4.95-1.1588-19.125-1.9618-31.5-0.80301-12.375-1.7438-27-2.0907-32.5-0.34689-5.5-1.0325-10.505-1.5236-11.122-1.2558-1.5784-16.945-2.8585-17.813-1.4534-0.36926 0.59748-0.0938 6.1464 0.61206 12.331 0.70589 6.1846 2.4332 22.495 3.8384 36.245s2.7598 26.8 3.0102 29c1.7048 14.978 2.7764 32.195 2.8322 45.5l0.065 15.5-4.7438 16c-4.9516 16.701-5.277 20.784-1.8913 23.732 3.2628 2.8412 5.9704 3.299 9.6352 1.6292h-0.00004zm-27.52-207.87c5.8111 0 10.175-0.44818 10.84-1.1133 0.7231-0.7231 2.6333-0.8497 5.45-0.36122 2.3852 0.41365 24.514 0.89274 49.176 1.0646 29.462 0.20537 45.274 0.6735 46.107 1.3651 0.9919 0.82321 1.4083-0.28761 1.9111-5.098 2.0748-19.851-0.65669-48.579-7.0138-73.765-2.0626-8.1719-2.3817-10.801-1.4852-12.236 1.8109-2.8998 1.396-5.3226-2.7696-16.17-2.1513-5.6021-7.5211-19.636-11.933-31.186s-8.7328-22.688-9.602-24.75l-1.5803-3.75h-17.518c-13.98 0-17.625-0.27895-18.048-1.3814-0.29155-0.75976 0.38962-15.441 1.5137-32.624 1.1241-17.184 1.8002-31.637 1.5024-32.119-0.29773-0.48175-2.5312-0.8759-4.9633-0.8759-5.406 0-5.1588-0.86441-5.8641 20.5-0.55365 16.77-3.0071 40.454-4.5778 44.19-0.69796 1.6603-1.9176 2.2651-5.0418 2.5l-4.1212 0.30988-7.7662 21c-4.2714 11.55-9.6887 25.725-12.038 31.5-2.3498 5.775-4.9277 12.681-5.7288 15.347-1.321 4.3956-1.3007 5.019 0.21799 6.6971 1.5711 1.736 1.5149 2.456-0.90891 11.653-4.6172 17.52-6.7951 32.734-7.3602 51.416-0.47763 15.791 0.43494 34.148 1.4733 29.636 0.34965-1.5191 1.6861-1.75 10.129-1.75zm47.6-250.1c1.5097-1.451 1.9808-3.2521 2-7.6455l0.0251-5.7473-6.7573-0.29586c-6.4819-0.28379-6.7978-0.18942-7.75 2.3151-3.9467 10.381 5.0173 18.548 12.482 11.374h-0.00005zm4.025-61.606c-2.8607-0.68834-7.2304-5.0765-7.9634-7.997-0.8726-3.4767 1.1259-8.8791 4.1707-11.274 4.1695-3.2797 9.7886-2.7198 13.893 1.3844 2.4274 2.4274 3.4 4.301 3.4 6.5497 0 4.664-2.676 9.017-6.5343 10.629-3.5401 1.4792-3.6952 1.4949-6.9657 0.70798zm-23.593-35.614c-2.8514-1.5059-5.4343-3.9858-7.3164-7.0246-9.8098-15.839 5.1386-35.481 22.972-30.185 5.4265 1.6115 11.573 7.057 13.378 11.852 1.3624 3.6199 1.3615 11.754-0.002 15.37-1.4395 3.8181-6.735 9.2516-10.657 10.934-5.0698 2.1754-13.262 1.7532-18.375-0.94688h0.00021zm7.8702-20.229c4.7646-3.3373 1.6011-12.443-4.3229-12.443-2.9918 0-7.4546 4.0827-7.4546 6.8197 0 1.0508 0.93266 3.0963 2.0726 4.5454 2.385 3.032 6.2952 3.4664 9.7049 1.0782zm21.223-26.163c-5.5438-2.0014-6.8393-8.6886-2.3651-12.208 1.4492-1.1399 3.4135-2.0726 4.3651-2.0726 3.0669 0 7 3.9116 7 6.9618 0 4.7341-4.9683 8.7743-9 7.3188zm-9.757-24.438c-2.8638-2.8638-0.31073-7.2869 3.8498-6.6697 3.0362 0.45036 4.7249 3.303 3.3012 5.5768-1.3453 2.1485-5.4657 2.7783-7.151 1.093z" fill="#616062"/>
    <path id="path2896" d="m338.25 877.46c-28.031-2.4872-46.971-9.538-53.95-20.084-2.4633-3.7223-2.6419-4.741-2.574-14.68 0.0856-12.518 2.5663-25.655 8.2067-43.461 5.6269-17.764 6.4643-24.545 5.8052-47.016-0.51468-17.547-1.0964-22.308-6.7449-55.203-6.0236-35.08-6.6583-41.368-5.803-57.5 0.13122-2.475-0.36362-10.125-1.0996-17-2.1389-19.979-0.0579-46.858 5.5355-71.5 1.7497-7.7082 2.3228-12.496 1.9154-16-0.78683-6.7658 0.8162-12.333 10.848-37.673 16.957-42.834 21.68-59.372 24.57-86.038 1.8802-17.35 1.4878-22.929-2.0931-29.761-3.7639-7.1805-4.553-13.7-2.4727-20.433 1.3259-4.2912 1.3342-5.1629 0.0668-6.9725-1.9604-2.7989-1.8984-12.536 0.098-15.386 2.2289-3.1822 10.356-5.1974 24.332-6.0334 23.316-1.3947 45.706 1.2828 48.097 5.7517 1.3436 2.5106 1.3179 13.627-0.0374 16.159-0.76143 1.4227-0.72466 3.0035 0.1301 5.5935 2.1472 6.5059 1.4258 13.98-1.9881 20.6-2.8144 5.457-3.0806 6.8058-3.0806 15.609 0 12.125 1.2931 22.689 5.029 41.083 3.064 15.087 8.3598 30.645 21.784 64 8.3476 20.741 9.6141 25.336 8.8956 32.274-0.35632 3.4408 0.10393 7.8072 1.3475 12.784 4.8745 19.508 6.2903 32.397 6.255 56.941-0.0802 55.773 0.17156 52.139-6.3052 91-7.2042 43.226-8.8796 61.161-7.2085 77.171 1.253 12.004 1.8492 14.632 7.4499 32.829 6.8295 22.19 8.7482 43.246 4.7024 51.604-4.5157 9.3281-19.9 16.556-42.147 19.801-13.457 1.963-36.663 2.6833-49.565 1.5384zm-3.6927-12.398c2.5659-2.5659 3.2212-5.9536 1.3727-7.096-0.595-0.36773-4.261-1.3266-8.1466-2.1308-5.8336-1.2074-7.2108-1.2319-7.9029-0.14041-1.4744 2.3254-0.93091 6.473 1.2039 9.1869 2.8847 3.6673 9.8921 3.7611 13.473 0.18031zm1.1981-35.914c2.8501-2.7485 5.5544-10.445 8.3248-23.693 2.9866-14.282 2.8054-30.298-0.98376-86.938-1.6742-25.025-3.3337-50-3.6878-55.5-0.35415-5.5-1.0457-10.505-1.5368-11.122-1.2375-1.5555-16.943-2.8605-17.797-1.4788-0.36063 0.58351 0.56571 12.207 2.0585 25.831 5.6392 51.464 7.2153 71.499 7.2977 92.77l0.0813 21-4.25 14.17c-4.9038 16.35-5.3521 21.965-2 25.056 4.0534 3.7372 8.5552 3.7031 12.494-0.0948l0.00001-0.00003zm-29.87-206.64c5.8111 0 10.175-0.44818 10.84-1.1133 0.7231-0.7231 2.6333-0.8497 5.45-0.36122 2.3852 0.41365 24.514 0.89274 49.176 1.0646 29.462 0.20537 45.274 0.6735 46.107 1.3651 0.9919 0.82321 1.4083-0.28761 1.9111-5.098 2.0748-19.851-0.65669-48.579-7.0138-73.765-2.0626-8.1719-2.3817-10.801-1.4852-12.236 1.8109-2.8998 1.396-5.3226-2.7696-16.17-2.1513-5.6021-7.5211-19.636-11.933-31.186s-8.7328-22.688-9.602-24.75l-1.5803-3.75h-34.974v-2.3888c0-1.3138 0.90615-16.197 2.0137-33.073 1.1075-16.877 1.756-31.102 1.441-31.611-0.31498-0.50964-3.0007-0.92662-5.9684-0.92662-5.3196 0-5.4026 0.0458-5.8889 3.25-0.27128 1.7875-0.72738 10.225-1.0136 18.75-0.45869 13.664-2.5554 35.427-4.1616 43.196-0.47873 2.3155-1.1224 2.7387-4.5622 3l-4.0049 0.3042-7.7662 21c-4.2714 11.55-9.6887 25.725-12.038 31.5-2.3498 5.775-4.9277 12.681-5.7288 15.347-1.321 4.3956-1.3007 5.019 0.21799 6.6971 1.5711 1.736 1.5149 2.456-0.90891 11.653-4.6172 17.52-6.7951 32.734-7.3602 51.416-0.47763 15.791 0.43494 34.148 1.4733 29.636 0.34965-1.5191 1.6861-1.75 10.129-1.75zm45.085-247.14c3.888-1.3554 6.0416-5.7133 6.0416-12.226 0-5.2639-0.63963-5.6391-9.6132-5.6391-7.4066 0-7.7614 0.39106-7.8386 8.64-0.0525 5.6079 1.9305 8.9099 5.8062 9.668 1.1801 0.23083 2.1909 0.48097 2.2464 0.55587 0.0554 0.0749 1.5663-0.37472 3.3576-0.99914zm5.0428-66.592c-4.7891-2.4268-6.5825-6.3892-5.1125-11.296 2.1864-7.2975 10.79-9.4522 16.188-4.0541 3.9287 3.9287 3.9945 8.8843 0.17308 13.025-3.5681 3.8666-6.8622 4.5473-11.249 2.3245zm-20.001-33.341c-3.1803-1.331-7.8041-5.6986-9.4556-8.9316-3.6194-7.0853-2.5719-15.621 2.6462-21.564 4.185-4.7664 8.2668-6.7056 14.284-6.786 6.316-0.0843 11.9 2.5993 15.932 7.6565 2.5709 3.2246 3.0865 4.8294 3.3734 10.5 0.39764 7.8596-1.3554 11.916-7.1913 16.639-3.1664 2.5628-4.6682 3.0343-10.395 3.264-3.6815 0.14764-7.8186-0.20238-9.1936-0.77784zm6.6856-20.106c4.9337-4.635 1.258-13.826-5.5293-13.826-4.7109 0-7.6108 3.0482-7.6108 8 0 3.2101 0.5568 4.6644 2.3381 6.1068 3.1369 2.5401 7.9318 2.4153 10.802-0.28107zm19.314-28.127c-2.0296-1.021-2.5-1.9975-2.5-5.1898 0-3.25 0.47706-4.199 2.75-5.4705 2.4706-1.382 3.0294-1.3828 5.5-0.007 7.0464 3.9234 1.457 14.293-5.75 10.667v-0.00015zm-8.6127-24.132c-1.0735-2.7976 0.40152-4.7239 3.357-4.3839 2.1882 0.2517 2.7557 0.8318 2.7557 2.817s-0.56748 2.5653-2.7557 2.817c-1.7971 0.20671-2.9649-0.22813-3.357-1.25z" fill="#9f2420"/>
    <path id="path2894" d="m338.25 877.46c-28.031-2.4872-46.971-9.538-53.95-20.084-2.4633-3.7223-2.6419-4.741-2.574-14.68 0.0856-12.518 2.5663-25.655 8.2067-43.461 5.6269-17.764 6.4643-24.545 5.8052-47.016-0.51468-17.547-1.0964-22.308-6.7449-55.203-6.0236-35.08-6.6583-41.368-5.803-57.5 0.13122-2.475-0.36362-10.125-1.0996-17-2.1389-19.979-0.0579-46.858 5.5355-71.5 1.7497-7.7082 2.3228-12.496 1.9154-16-0.78683-6.7658 0.8162-12.333 10.848-37.673 16.957-42.834 21.68-59.372 24.57-86.038 1.8802-17.35 1.4878-22.929-2.0931-29.761-3.7639-7.1805-4.553-13.7-2.4727-20.433 1.3259-4.2912 1.3342-5.1629 0.0668-6.9725-1.9604-2.7989-1.8984-12.536 0.098-15.386 2.2289-3.1822 10.356-5.1974 24.332-6.0334 23.316-1.3947 45.706 1.2828 48.097 5.7517 1.3436 2.5106 1.3179 13.627-0.0374 16.159-0.76143 1.4227-0.72466 3.0035 0.1301 5.5935 2.1472 6.5059 1.4258 13.98-1.9881 20.6-2.8144 5.457-3.0806 6.8058-3.0806 15.609 0 12.125 1.2931 22.689 5.029 41.083 3.064 15.087 8.3598 30.645 21.784 64 8.3476 20.741 9.6141 25.336 8.8956 32.274-0.35632 3.4408 0.10393 7.8072 1.3475 12.784 4.8745 19.508 6.2903 32.397 6.255 56.941-0.0802 55.773 0.17156 52.139-6.3052 91-7.2042 43.226-8.8796 61.161-7.2085 77.171 1.253 12.004 1.8492 14.632 7.4499 32.829 6.8295 22.19 8.7482 43.246 4.7024 51.604-4.5157 9.3281-19.9 16.556-42.147 19.801-13.457 1.963-36.663 2.6833-49.565 1.5384zm-3.6927-12.398c2.5659-2.5659 3.2212-5.9536 1.3727-7.096-0.595-0.36773-4.261-1.3266-8.1466-2.1308-5.8336-1.2074-7.2108-1.2319-7.9029-0.14041-1.4744 2.3254-0.93091 6.473 1.2039 9.1869 2.8847 3.6673 9.8921 3.7611 13.473 0.18031zm2.046-35.883c4.9643-5.709 10.189-29.093 11.097-49.662l0.59556-13.5 27.808 0.5c31.923 0.574 28.863 1.6328 28.904-10 0.0374-10.71 2.7276-30.409 8.5805-62.831 6.4857-35.927 7.3219-43.578 5.205-47.618-1.3109-2.5019-1.3021-3.5775 0.0771-9.4375 1.1878-5.0467 1.5608-12.537 1.5744-31.614 0.0193-27.129-1.3867-39.194-7.0986-60.916-2.0436-7.7715-2.3616-10.31-1.4706-11.736 1.7682-2.8313 1.3339-5.6766-2.266-14.848-3.5644-9.0804-21.088-54.659-22.779-59.25l-1.0133-2.75h-17.902c-16.884 0-17.902-0.10741-17.902-1.8888 0-1.0388 0.90615-15.697 2.0137-32.573 1.1075-16.877 1.756-31.102 1.441-31.611-0.31498-0.50964-3.0007-0.92662-5.9684-0.92662-5.3196 0-5.4026 0.0458-5.8889 3.25-0.27128 1.7875-0.72738 10.225-1.0136 18.75-0.45753 13.629-2.6365 36.382-4.0886 42.693-0.40559 1.7626-1.3319 2.253-4.7222 2.5-3.9798 0.28994-4.3165 0.56101-5.9723 4.8073-3.8862 9.966-19.15 50.1-22.437 58.993-3.3558 9.0803-3.4378 9.6119-1.8889 12.234 1.5081 2.553 1.4846 3.206-0.34234 9.5072-5.8539 20.191-8.4893 39.843-8.5513 63.766-0.0374 14.407 0.40023 21.44 1.8101 29.094 1.7637 9.5743 1.7707 10.229 0.1365 12.723-2.1199 3.2354-2.1848 2.6929 5.585 46.683 5.9493 33.683 8.889 55.969 8.885 67.357l-0.002 6.1432 10.002-0.31641 10.002-0.31642v10.023c0 8.2865-0.6237 12.414-3.5992 23.816-5.7564 22.06-5.6491 21.442-4.4366 25.53 2.0179 6.8039 10.981 8.7685 15.627 3.4253h-0.00018zm14.367-453.8c3.888-1.3554 6.0416-5.7133 6.0416-12.226 0-5.2639-0.63963-5.6391-9.6132-5.6391-7.4066 0-7.7614 0.39106-7.8386 8.64-0.0525 5.6079 1.9305 8.9099 5.8062 9.668 1.1801 0.23083 2.1909 0.48097 2.2464 0.55587 0.0554 0.0749 1.5663-0.37472 3.3576-0.99914zm5.0428-66.592c-4.7891-2.4268-6.5825-6.3892-5.1125-11.296 2.1864-7.2975 10.79-9.4522 16.188-4.0541 3.9287 3.9287 3.9945 8.8843 0.17308 13.025-3.5681 3.8666-6.8622 4.5473-11.249 2.3245zm-20.001-33.341c-3.1803-1.331-7.8041-5.6986-9.4556-8.9316-3.6194-7.0853-2.5719-15.621 2.6462-21.564 4.185-4.7664 8.2668-6.7056 14.284-6.786 6.316-0.0843 11.9 2.5993 15.932 7.6565 2.5709 3.2246 3.0865 4.8294 3.3734 10.5 0.39764 7.8596-1.3554 11.916-7.1913 16.639-3.1664 2.5628-4.6682 3.0343-10.395 3.264-3.6815 0.14764-7.8186-0.20238-9.1936-0.77784zm6.6856-20.106c4.9337-4.635 1.258-13.826-5.5293-13.826-4.7109 0-7.6108 3.0482-7.6108 8 0 3.2101 0.5568 4.6644 2.3381 6.1068 3.1369 2.5401 7.9318 2.4153 10.802-0.28107zm19.314-28.127c-2.0296-1.021-2.5-1.9975-2.5-5.1898 0-3.25 0.47706-4.199 2.75-5.4705 2.4706-1.382 3.0294-1.3828 5.5-0.007 7.0464 3.9234 1.457 14.293-5.75 10.667v-0.00015zm-8.6127-24.132c-1.0735-2.7976 0.40152-4.7239 3.357-4.3839 2.1882 0.2517 2.7557 0.8318 2.7557 2.817s-0.56748 2.5653-2.7557 2.817c-1.7971 0.20671-2.9649-0.22813-3.357-1.25z" fill="#6b1f18"/>
    <path id="path2892" d="m341.01 877.51c-30.211-2.3037-51.363-10.068-57.151-20.98-3.7667-7.1001-1.9953-30.472 3.715-49.016 11.589-37.633 11.72-49.283 1.2581-111.5-5.8665-34.887-6.3738-40.011-5.5933-56.5 0.11715-2.475-0.37312-10.35-1.0895-17.5-2.0539-20.5 0.43616-49.928 6.2527-73.897 1.8242-7.517 2.1667-10.572 1.4242-12.702-1.537-4.409 0.61183-12.502 8.7359-32.901 13.923-34.961 19.327-50.881 22.401-66 3.3677-16.561 5.0482-30.454 5.0451-41.711-0.002-6.7281-0.41256-8.568-3.0142-13.504-3.9504-7.4942-4.709-13.272-2.5922-19.744 1.531-4.6809 1.5318-5.2296 0.0101-7.552-1.2257-1.8706-1.5285-4.0584-1.1967-8.646 0.5346-7.3908 2.1716-9.098 10.576-11.03 7.7467-1.7805 46.622-1.7974 54.324-0.0236 8.2492 1.8997 9.8947 3.8557 9.8947 11.762 0 3.561-0.54694 7.3504-1.2154 8.4208-0.95391 1.5274-0.95391 2.6694 0 5.3074 0.66849 1.8487 1.2154 6.0784 1.2154 9.3994 0 4.8512-0.61641 7.1934-3.1357 11.914l-3.1357 5.8761 0.57239 15.015c1.1736 30.785 6.1157 49.129 27.485 102.01 7.4851 18.525 7.6804 19.225 7.8075 28 0.0799 5.5101 1.1631 13.802 2.7935 21.384 5.4134 25.174 7.2063 58.491 4.2036 78.116-0.78424 5.1255-0.9611 9.4191-0.44549 10.815 1.8424 4.9882 0.64144 17.498-4.7004 48.962-10.438 61.482-10.881 80.793-2.4407 106.39 7.8712 23.87 11.228 47.773 7.9367 56.518-2.7403 7.2808-13.425 14.503-27.038 18.275-15.888 4.4028-42.873 6.5631-62.902 5.0358v0.00005zm-6.3991-12.079c0.7739-0.64228 1.7728-2.5737 2.2198-4.292l0.81268-3.1242 13.433 0.35495c27.961 0.73883 53.4-5.3723 66.166-15.895 6.2067-5.1161 5.8732-11.429-1.859-35.185-5.9785-18.368-7.2814-24.911-8.0197-40.275-0.85079-17.705 0.4991-30.166 8.3239-76.841 6.5818-39.26 6.6535-39.889 4.9176-43.112-1.6497-3.0632-1.664-3.9313-0.22588-13.659 2.4537-16.597 2.8353-26.381 1.647-42.231-1.239-16.527-3.799-32.207-7.674-47.002-2.1658-8.2692-2.3794-10.217-1.3341-12.17 1.7676-3.3027 0.67548-7.848-5.5184-22.968-2.9326-7.159-8.0272-20.216-11.321-29.016-3.2941-8.8-6.9136-18.138-8.0433-20.75l-2.054-4.75h-17.477c-9.6121 0-17.73-0.40953-18.039-0.91008-0.30936-0.50054 0.3797-14.989 1.5312-32.197 2.006-29.978 2.0191-31.342 0.31232-32.59-2.3611-1.7265-7.8981-1.6608-9.6737 0.11487-1.0621 1.0621-1.5691 5.763-2.0223 18.75-0.52758 15.118-2.6791 37.882-4.2086 44.528-0.41841 1.8181-1.3136 2.2478-5.2093 2.5l-4.704 0.30457-5.8285 16c-3.2057 8.8-9.1424 24.325-13.193 34.5-8.5805 21.556-9.3619 24.453-7.2338 26.817 1.3598 1.5107 1.2264 2.808-1.3044 12.683-7.9166 30.891-10.104 66.413-5.5958 90.878 1.3034 7.0734 1.2903 8.1247-0.12814 10.29-2.1352 3.2587-1.6156 8.017 5.1245 46.927 6.8727 39.675 7.8651 48.107 7.8741 66.906 0.0103 21.484-2.3261 32.983-10.87 53.497-1.9622 4.7114-2.8403 8.8534-3.1947 15.069-0.48217 8.4567-0.44717 8.619 2.6095 12.1 2.8291 3.2222 12.193 8.5872 21.252 12.177 3.2443 1.2855 3.5492 1.7284 3.1345 4.5542-0.70026 4.7712 1.4687 8.9627 5.1443 9.9414 3.3097 0.88124 7.8863 0.0209 10.228-1.9228zm16.786-489.87c1.3845-0.52637 3.2089-2.2947 4.0544-3.9296 2.0495-3.9633 2.3387-12.007 0.47413-13.187-1.9601-1.2407-14.654-1.1592-15.431 0.0991-0.34866 0.56414-0.87249 3.3766-1.1641 6.25-0.43871 4.3232-0.16363 5.6871 1.5948 7.9074 1.1687 1.4757 3.1285 2.8769 4.3551 3.1138 1.2265 0.23691 2.5383 0.49204 2.915 0.56694s1.8176-0.29449 3.2021-0.82086zm2.912-67.546c-1.1803-0.82671-2.6596-3.0596-3.2875-4.9619-3.5999-10.908 12.21-17.742 17.478-7.555 2.1835 4.2224 1.866 7.4439-1.0785 10.943-2.1321 2.5339-3.3279 3.0767-6.7775 3.0767-2.3037 0-5.1543-0.6764-6.3346-1.5031zm-18.923-33.084c-8.2707-4.08-12.334-13.284-9.9392-22.516 0.72793-2.8062 2.3287-6.0688 3.5572-7.25l2.2337-2.1477-1.1137 2.1843c-4.3632 8.5572 6.3626 16.76 12.865 9.8386 5.1-5.4288 0.72811-14.174-6.6549-13.312-3.0305 0.35379-3.2045 0.24191-1.8032-1.1594 1.1359-1.1359 3.6363-1.551 9.3431-1.551 6.9988 0 8.167 0.28589 11.474 2.8079 9.0111 6.8731 10.318 20.474 2.7923 29.048-4.6348 5.2805-16.122 7.3285-22.754 4.0568zm26.904-47.433c-4.615-1.857-3.8147-10.306 1.0929-11.537 7.0704-1.7746 10.688 8.3862 4.0609 11.406-1.3903 0.63347-2.6192 1.1232-2.7308 1.0884-0.11162-0.0349-1.202-0.46538-2.423-0.95671zm-8.7934-25.022c-0.86242-2.7173 0.58816-4.2251 3.6482-3.7922 1.7671 0.25003 2.3653 0.96695 2.3653 2.8347 0 3.4399-4.9742 4.2319-6.0135 0.95748z" fill="#110f0f"/>
  </g>
  <metadata>
    <rdf:RDF>
      <cc:Work>
        <dc:format>image/svg+xml</dc:format>
        <dc:type rdf:resource="http://purl.org/dc/dcmitype/StillImage"/>
        <cc:license rdf:resource="http://creativecommons.org/licenses/publicdomain/"/>
        <dc:publisher>
          <cc:Agent rdf:about="http://openclipart.org/">
            <dc:title>Openclipart</dc:title>
          </cc:Agent>
        </dc:publisher>
        <dc:title>Bottle with Soda</dc:title>
        <dc:date>2010-04-13T16:33:29</dc:date>
        <dc:description>Red Bottle with Soda</dc:description>
        <dc:source>http://openclipart.org/detail/46639/bottle-with-soda-by-keksschafuser</dc:source>
        <dc:creator>
          <cc:Agent>
            <dc:title>keksschafUSER</dc:title>
          </cc:Agent>
        </dc:creator>
        <dc:subject>
          <rdf:Bag>
            <rdf:li>bottle</rdf:li>
            <rdf:li>clip art</rdf:li>
            <rdf:li>clipart</rdf:li>
            <rdf:li>drink</rdf:li>
            <rdf:li>food</rdf:li>
            <rdf:li>red</rdf:li>
          </rdf:Bag>
        </dc:subject>
      </cc:Work>
      <cc:License rdf:about="http://creativecommons.org/licenses/publicdomain/">
        <cc:permits rdf:resource="http://creativecommons.org/ns#Reproduction"/>
        <cc:permits rdf:resource="http://creativecommons.org/ns#Distribution"/>
        <cc:permits rdf:resource="http://creativecommons.org/ns#DerivativeWorks"/>
      </cc:License>
    </rdf:RDF>
  </metadata>
</svg>
